# xmcd
#
# Track frame offsets:
#	150
#	9872
#	27354
#	39821
#	54643
#	66802
#	87433
#	103021
#	117326
#	126631
#	141758
#	156439
#	168628
#	184090
#	207605
#	214708
#	236314
#	244600
#	259741
#	272947
#	287099
#	299678
#	315656
#	331438
#	340561
#
# Disc length: 4712 seconds
#
# Revision: 0
# Processed by: cddbd v1.5.2PL0 Copyright (c) Steve Scherf et al.
# Submitted via: audiograbber 1.83.01
#
DISCID=7f126619
DTITLE=Schürzenjäger - Weihnacht mit den Schürzenjägern
DYEAR=1900
DGENRE=volkstümlich
TTITLE0=Gott grüaß enk, Leutln
TTITLE1=Weihnachten miteinander
TTITLE2=Wer klopfet an?
TTITLE3=Bist du bei mir, dann ist es Weihnacht
TTITLE4=Wo san denn heit die Schafersbuam?
TTITLE5=Oft denk i ollm u di
TTITLE6=A Weihnacht wie's früher war
TTITLE7=Das Licht in unsren Herzen
TTITLE8=Hansl, pack dei Binggerl zamm
TTITLE9=Jedes Jahr zur selben Zeit
TTITLE10=Es wird scho glei dumpa
TTITLE11=Stille Nacht
TTITLE12=Weihnacht ist erst, wenn du bei mir bist
TTITLE13=Christkindl host mi vergessen
TTITLE14=Iaz kimmt oft's liabe Jesulein
TTITLE15=In so viel Herzen ist es ewig Winter
TTITLE16=Mander was is los mit enk
TTITLE17=So still is jetzt die Zeit
TTITLE18=Die Sterne am Tiroler Himmel
TTITLE19=Misteln vom Bam
TTITLE20='S Kripperl ham mir aufgebaut
TTITLE21=Stille in den Bergen
TTITLE22=Der Glockenjodler
TTITLE23=Wiegenlied
TTITLE24=An alle, die draussen leben
EXTD=
EXTT0=
EXTT1=
EXTT2=
EXTT3=
EXTT4=
EXTT5=
EXTT6=
EXTT7=
EXTT8=
EXTT9=
EXTT10=
EXTT11=
EXTT12=
EXTT13=
EXTT14=
EXTT15=
EXTT16=
EXTT17=
EXTT18=
EXTT19=
EXTT20=
EXTT21=
EXTT22=
EXTT23=
EXTT24=
PLAYORDER=
